<svg width="368" height="368" viewBox="0 0 368 368" fill="none" xmlns="http://www.w3.org/2000/svg">
<circle cx="184" cy="184" r="180" stroke="#4381B7" stroke-width="8"/>
<path d="M285.506 271.65C274.12 287.132 259.343 299.805 242.306 308.698C225.27 317.591 206.424 322.469 187.212 322.959C168 323.449 148.931 319.538 131.463 311.525C113.995 303.511 98.5919 291.609 86.4316 276.727" stroke="#4381B7" stroke-width="8"/>
<path d="M82.4945 109.35C93.8805 93.8678 108.657 81.1954 125.694 72.3022C142.731 63.4091 161.576 58.5309 180.788 58.0409C200 57.551 219.069 61.4622 236.537 69.4754C254.005 77.4886 269.408 89.3913 281.568 104.273" stroke="#4381B7" stroke-width="8"/>
<path d="M64.2593 179C63.8926 179 63.5626 178.872 63.2693 178.615C63.0126 178.358 62.8843 178.028 62.8843 177.625V165.8L50.1243 142.26C50.0876 142.15 50.0509 142.058 50.0143 141.985C49.9776 141.875 49.9593 141.765 49.9593 141.655C49.9593 141.362 50.0693 141.105 50.2893 140.885C50.5459 140.628 50.8393 140.5 51.1693 140.5H58.0443C58.5943 140.5 59.0159 140.647 59.3093 140.94C59.6393 141.197 59.8409 141.435 59.9143 141.655L67.8343 155.845L75.7543 141.655C75.8643 141.435 76.0659 141.197 76.3593 140.94C76.6893 140.647 77.1293 140.5 77.6793 140.5H84.5543C84.8843 140.5 85.1593 140.628 85.3793 140.885C85.5993 141.105 85.7093 141.362 85.7093 141.655C85.7093 141.765 85.6909 141.875 85.6543 141.985C85.6543 142.058 85.6359 142.15 85.5993 142.26L72.7843 165.8V177.625C72.7843 178.028 72.6559 178.358 72.3993 178.615C72.1426 178.872 71.8126 179 71.4093 179H64.2593ZM104.378 179.55C101.005 179.55 98.0717 179 95.5783 177.9C93.085 176.8 91.1417 175.15 89.7483 172.95C88.355 170.713 87.585 167.927 87.4383 164.59C87.4017 163.013 87.3833 161.437 87.3833 159.86C87.3833 158.283 87.4017 156.688 87.4383 155.075C87.585 151.775 88.355 149.007 89.7483 146.77C91.1783 144.497 93.14 142.792 95.6333 141.655C98.1267 140.518 101.042 139.95 104.378 139.95C107.678 139.95 110.575 140.518 113.068 141.655C115.598 142.792 117.578 144.497 119.008 146.77C120.438 149.007 121.208 151.775 121.318 155.075C121.392 156.688 121.428 158.283 121.428 159.86C121.428 161.437 121.392 163.013 121.318 164.59C121.172 167.927 120.402 170.713 119.008 172.95C117.615 175.15 115.672 176.8 113.178 177.9C110.685 179 107.752 179.55 104.378 179.55ZM104.378 171.63C106.322 171.63 107.898 171.043 109.108 169.87C110.355 168.697 111.015 166.827 111.088 164.26C111.162 162.647 111.198 161.125 111.198 159.695C111.198 158.265 111.162 156.78 111.088 155.24C111.015 153.517 110.685 152.123 110.098 151.06C109.548 149.96 108.778 149.153 107.788 148.64C106.798 148.127 105.662 147.87 104.378 147.87C103.132 147.87 102.013 148.127 101.023 148.64C100.033 149.153 99.245 149.96 98.6583 151.06C98.0717 152.123 97.7417 153.517 97.6683 155.24C97.6317 156.78 97.6133 158.265 97.6133 159.695C97.6133 161.125 97.6317 162.647 97.6683 164.26C97.7783 166.827 98.4383 168.697 99.6483 169.87C100.858 171.043 102.435 171.63 104.378 171.63ZM143.919 179.55C140.619 179.55 137.722 179.018 135.229 177.955C132.772 176.855 130.865 175.187 129.509 172.95C128.152 170.677 127.474 167.798 127.474 164.315V141.875C127.474 141.472 127.602 141.142 127.859 140.885C128.115 140.628 128.445 140.5 128.849 140.5H135.944C136.347 140.5 136.677 140.628 136.934 140.885C137.19 141.142 137.319 141.472 137.319 141.875V164.26C137.319 166.643 137.887 168.44 139.024 169.65C140.197 170.823 141.829 171.41 143.919 171.41C145.972 171.41 147.567 170.823 148.704 169.65C149.877 168.44 150.464 166.643 150.464 164.26V141.875C150.464 141.472 150.592 141.142 150.849 140.885C151.142 140.628 151.472 140.5 151.839 140.5H158.989C159.355 140.5 159.667 140.628 159.924 140.885C160.217 141.142 160.364 141.472 160.364 141.875V164.315C160.364 167.798 159.685 170.677 158.329 172.95C156.972 175.187 155.065 176.855 152.609 177.955C150.152 179.018 147.255 179.55 143.919 179.55ZM177.502 179C177.099 179 176.769 178.872 176.512 178.615C176.255 178.358 176.127 178.028 176.127 177.625V149.135H166.337C165.934 149.135 165.604 149.007 165.347 148.75C165.09 148.457 164.962 148.127 164.962 147.76V141.875C164.962 141.472 165.09 141.142 165.347 140.885C165.604 140.628 165.934 140.5 166.337 140.5H195.927C196.33 140.5 196.66 140.628 196.917 140.885C197.174 141.142 197.302 141.472 197.302 141.875V147.76C197.302 148.127 197.174 148.457 196.917 148.75C196.66 149.007 196.33 149.135 195.927 149.135H186.137V177.625C186.137 178.028 186.009 178.358 185.752 178.615C185.495 178.872 185.165 179 184.762 179H177.502ZM218.416 179.55C215.116 179.55 212.219 179.018 209.726 177.955C207.269 176.855 205.362 175.187 204.006 172.95C202.649 170.677 201.971 167.798 201.971 164.315V141.875C201.971 141.472 202.099 141.142 202.356 140.885C202.612 140.628 202.942 140.5 203.346 140.5H210.441C210.844 140.5 211.174 140.628 211.431 140.885C211.687 141.142 211.816 141.472 211.816 141.875V164.26C211.816 166.643 212.384 168.44 213.521 169.65C214.694 170.823 216.326 171.41 218.416 171.41C220.469 171.41 222.064 170.823 223.201 169.65C224.374 168.44 224.961 166.643 224.961 164.26V141.875C224.961 141.472 225.089 141.142 225.346 140.885C225.639 140.628 225.969 140.5 226.336 140.5H233.486C233.852 140.5 234.164 140.628 234.421 140.885C234.714 141.142 234.861 141.472 234.861 141.875V164.315C234.861 167.798 234.182 170.677 232.826 172.95C231.469 175.187 229.562 176.855 227.106 177.955C224.649 179.018 221.752 179.55 218.416 179.55ZM243.529 179C243.126 179 242.796 178.872 242.539 178.615C242.283 178.358 242.154 178.028 242.154 177.625V141.875C242.154 141.472 242.283 141.142 242.539 140.885C242.796 140.628 243.126 140.5 243.529 140.5H260.304C263.458 140.5 266.043 140.94 268.059 141.82C270.076 142.7 271.561 143.965 272.514 145.615C273.504 147.228 273.999 149.153 273.999 151.39C273.999 152.71 273.743 153.883 273.229 154.91C272.753 155.9 272.148 156.725 271.414 157.385C270.718 158.045 270.058 158.522 269.434 158.815C270.828 159.475 272.056 160.557 273.119 162.06C274.219 163.563 274.769 165.323 274.769 167.34C274.769 169.76 274.219 171.85 273.119 173.61C272.056 175.333 270.479 176.672 268.389 177.625C266.336 178.542 263.806 179 260.799 179H243.529ZM251.999 171.85H259.699C261.276 171.85 262.468 171.392 263.274 170.475C264.081 169.558 264.484 168.513 264.484 167.34C264.484 166.057 264.063 164.975 263.219 164.095C262.413 163.215 261.239 162.775 259.699 162.775H251.999V171.85ZM251.999 155.79H259.204C260.708 155.79 261.826 155.405 262.559 154.635C263.329 153.865 263.714 152.875 263.714 151.665C263.714 150.492 263.329 149.538 262.559 148.805C261.826 148.035 260.708 147.65 259.204 147.65H251.999V155.79ZM282.255 179C281.851 179 281.521 178.872 281.265 178.615C281.008 178.358 280.88 178.028 280.88 177.625V141.875C280.88 141.472 281.008 141.142 281.265 140.885C281.521 140.628 281.851 140.5 282.255 140.5H307.94C308.343 140.5 308.673 140.628 308.93 140.885C309.186 141.142 309.315 141.472 309.315 141.875V147.045C309.315 147.448 309.186 147.778 308.93 148.035C308.673 148.292 308.343 148.42 307.94 148.42H290.395V155.845H306.73C307.133 155.845 307.463 155.992 307.72 156.285C307.976 156.542 308.105 156.872 308.105 157.275V162.06C308.105 162.427 307.976 162.757 307.72 163.05C307.463 163.307 307.133 163.435 306.73 163.435H290.395V171.08H308.38C308.783 171.08 309.113 171.208 309.37 171.465C309.626 171.722 309.755 172.052 309.755 172.455V177.625C309.755 178.028 309.626 178.358 309.37 178.615C309.113 178.872 308.783 179 308.38 179H282.255ZM78.2993 252.62C74.166 252.62 70.7353 252.041 68.0073 250.884C65.2793 249.685 63.2127 248.135 61.8073 246.234C60.402 244.333 59.658 242.307 59.5753 240.158C59.5753 239.827 59.6993 239.538 59.9473 239.29C60.2367 239.001 60.5673 238.856 60.9393 238.856H68.7513C69.33 238.856 69.764 238.959 70.0533 239.166C70.384 239.373 70.6733 239.641 70.9213 239.972C71.252 240.592 71.7067 241.191 72.2853 241.77C72.9053 242.349 73.6907 242.824 74.6413 243.196C75.6333 243.527 76.8527 243.692 78.2993 243.692C80.6967 243.692 82.4947 243.32 83.6933 242.576C84.9333 241.832 85.5533 240.819 85.5533 239.538C85.5533 238.629 85.2227 237.885 84.5613 237.306C83.9 236.686 82.8253 236.149 81.3373 235.694C79.8907 235.198 77.948 234.702 75.5093 234.206C72.368 233.545 69.6813 232.697 67.4493 231.664C65.2587 230.589 63.5847 229.205 62.4273 227.51C61.27 225.774 60.6913 223.625 60.6913 221.062C60.6913 218.541 61.394 216.288 62.7993 214.304C64.246 212.32 66.2507 210.77 68.8133 209.654C71.376 208.538 74.414 207.98 77.9273 207.98C80.7793 207.98 83.28 208.352 85.4293 209.096C87.62 209.84 89.4593 210.832 90.9473 212.072C92.4353 213.312 93.5513 214.635 94.2953 216.04C95.0807 217.404 95.494 218.747 95.5353 220.07C95.5353 220.401 95.4113 220.711 95.1633 221C94.9153 221.248 94.6053 221.372 94.2333 221.372H86.0493C85.5947 221.372 85.202 221.289 84.8713 221.124C84.5407 220.959 84.2513 220.69 84.0033 220.318C83.7553 219.409 83.094 218.623 82.0193 217.962C80.986 217.259 79.622 216.908 77.9273 216.908C76.1087 216.908 74.6827 217.239 73.6493 217.9C72.6573 218.52 72.1613 219.491 72.1613 220.814C72.1613 221.641 72.43 222.364 72.9673 222.984C73.546 223.604 74.476 224.141 75.7573 224.596C77.08 225.051 78.878 225.526 81.1513 226.022C84.9127 226.725 87.9507 227.613 90.2653 228.688C92.58 229.721 94.2747 231.085 95.3493 232.78C96.424 234.433 96.9613 236.521 96.9613 239.042C96.9613 241.853 96.1553 244.291 94.5433 246.358C92.9727 248.383 90.782 249.933 87.9713 251.008C85.1607 252.083 81.9367 252.62 78.2993 252.62ZM104.718 252C104.263 252 103.891 251.855 103.602 251.566C103.313 251.277 103.168 250.905 103.168 250.45V210.15C103.168 209.695 103.313 209.323 103.602 209.034C103.891 208.745 104.263 208.6 104.718 208.6H133.672C134.127 208.6 134.499 208.745 134.788 209.034C135.077 209.323 135.222 209.695 135.222 210.15V215.978C135.222 216.433 135.077 216.805 134.788 217.094C134.499 217.383 134.127 217.528 133.672 217.528H113.894V225.898H132.308C132.763 225.898 133.135 226.063 133.424 226.394C133.713 226.683 133.858 227.055 133.858 227.51V232.904C133.858 233.317 133.713 233.689 133.424 234.02C133.135 234.309 132.763 234.454 132.308 234.454H113.894V243.072H134.168C134.623 243.072 134.995 243.217 135.284 243.506C135.573 243.795 135.718 244.167 135.718 244.622V250.45C135.718 250.905 135.573 251.277 135.284 251.566C134.995 251.855 134.623 252 134.168 252H104.718ZM140.286 252C139.955 252 139.645 251.876 139.356 251.628C139.108 251.339 138.984 251.029 138.984 250.698C138.984 250.491 139.004 250.305 139.046 250.14L153.616 210.336C153.74 209.881 153.988 209.489 154.36 209.158C154.773 208.786 155.331 208.6 156.034 208.6H165.21C165.912 208.6 166.45 208.786 166.822 209.158C167.235 209.489 167.504 209.881 167.628 210.336L182.136 250.14C182.218 250.305 182.26 250.491 182.26 250.698C182.26 251.029 182.115 251.339 181.826 251.628C181.578 251.876 181.268 252 180.896 252H173.27C172.65 252 172.174 251.855 171.844 251.566C171.554 251.235 171.368 250.946 171.286 250.698L168.868 244.374H152.314L149.958 250.698C149.875 250.946 149.689 251.235 149.4 251.566C149.11 251.855 148.614 252 147.912 252H140.286ZM154.856 235.446H166.388L160.56 219.078L154.856 235.446ZM188.697 252C188.242 252 187.87 251.855 187.581 251.566C187.291 251.277 187.147 250.905 187.147 250.45V210.15C187.147 209.695 187.291 209.323 187.581 209.034C187.87 208.745 188.242 208.6 188.697 208.6H205.561C210.893 208.6 215.088 209.84 218.147 212.32C221.247 214.759 222.797 218.231 222.797 222.736C222.797 225.671 222.073 228.151 220.627 230.176C219.221 232.201 217.361 233.731 215.047 234.764L223.603 250.016C223.727 250.264 223.789 250.491 223.789 250.698C223.789 251.029 223.644 251.339 223.355 251.628C223.107 251.876 222.797 252 222.425 252H214.241C213.455 252 212.877 251.814 212.505 251.442C212.133 251.029 211.864 250.657 211.699 250.326L204.631 236.686H198.245V250.45C198.245 250.905 198.1 251.277 197.811 251.566C197.521 251.855 197.149 252 196.695 252H188.697ZM198.245 227.944H205.437C207.379 227.944 208.826 227.469 209.777 226.518C210.769 225.567 211.265 224.265 211.265 222.612C211.265 221 210.789 219.698 209.839 218.706C208.929 217.714 207.462 217.218 205.437 217.218H198.245V227.944ZM247.626 252.62C243.7 252.62 240.331 251.979 237.52 250.698C234.751 249.417 232.581 247.536 231.01 245.056C229.481 242.576 228.634 239.497 228.468 235.818C228.427 234.123 228.406 232.305 228.406 230.362C228.406 228.419 228.427 226.559 228.468 224.782C228.634 221.186 229.502 218.148 231.072 215.668C232.643 213.147 234.834 211.245 237.644 209.964C240.455 208.641 243.782 207.98 247.626 207.98C250.354 207.98 252.876 208.331 255.19 209.034C257.505 209.695 259.53 210.687 261.266 212.01C263.002 213.291 264.346 214.862 265.296 216.722C266.288 218.541 266.805 220.607 266.846 222.922C266.888 223.294 266.764 223.604 266.474 223.852C266.226 224.1 265.916 224.224 265.544 224.224H257.174C256.637 224.224 256.224 224.121 255.934 223.914C255.645 223.666 255.397 223.232 255.19 222.612C254.612 220.421 253.661 218.933 252.338 218.148C251.057 217.321 249.466 216.908 247.564 216.908C245.291 216.908 243.493 217.549 242.17 218.83C240.848 220.07 240.124 222.157 240 225.092C239.876 228.481 239.876 231.953 240 235.508C240.124 238.443 240.848 240.551 242.17 241.832C243.493 243.072 245.291 243.692 247.564 243.692C249.466 243.692 251.078 243.279 252.4 242.452C253.723 241.625 254.653 240.137 255.19 237.988C255.356 237.368 255.583 236.955 255.872 236.748C256.203 236.5 256.637 236.376 257.174 236.376H265.544C265.916 236.376 266.226 236.5 266.474 236.748C266.764 236.996 266.888 237.306 266.846 237.678C266.805 239.993 266.288 242.08 265.296 243.94C264.346 245.759 263.002 247.329 261.266 248.652C259.53 249.933 257.505 250.925 255.19 251.628C252.876 252.289 250.354 252.62 247.626 252.62ZM274.915 252C274.461 252 274.089 251.855 273.799 251.566C273.51 251.277 273.365 250.905 273.365 250.45V210.15C273.365 209.695 273.51 209.323 273.799 209.034C274.089 208.745 274.461 208.6 274.915 208.6H282.913C283.368 208.6 283.74 208.745 284.029 209.034C284.319 209.323 284.463 209.695 284.463 210.15V225.092H299.777V210.15C299.777 209.695 299.922 209.323 300.211 209.034C300.501 208.745 300.873 208.6 301.327 208.6H309.325C309.78 208.6 310.152 208.745 310.441 209.034C310.731 209.323 310.875 209.695 310.875 210.15V250.45C310.875 250.905 310.731 251.277 310.441 251.566C310.152 251.855 309.78 252 309.325 252H301.327C300.873 252 300.501 251.855 300.211 251.566C299.922 251.277 299.777 250.905 299.777 250.45V235.012H284.463V250.45C284.463 250.905 284.319 251.277 284.029 251.566C283.74 251.855 283.368 252 282.913 252H274.915Z" fill="#4381B7"/>
</svg>
